# xmcd
#
# Track frame offsets:
#	150
#	13950
#	24936
#	42352
#	55192
#	69532
#	84117
#	95925
#	109541
#	124296
#	137170
#	151737
#	165461
#	177548
#	191753
#	209942
#	224210
#
# Disc length: 3184 seconds
#
# Revision: 1
# Processed by: cddbd v1.5.1PL0 Copyright (c) Steve Scherf et al.
# Submitted via: audiograbber 1.83.01
#
DISCID=fe0c6e11
DTITLE=Bo Göran Svensson - Amerikanska Irrfärder Del 2
DYEAR=2005
DGENRE=Country
TTITLE0=Det Stavas "Tegelsten"
TTITLE1=Lilla Fröken Fantasi
TTITLE2=Har Du Glömt Vad Du Drömt
TTITLE3=Att Backa Bandet
TTITLE4=Raka Vägen Hem
TTITLE5=Var Har Du Gömt Din Svans
TTITLE6=Hallå Josephine
TTITLE7=Om Inger Får Ett Finger
TTITLE8=Sova Sova Sova
TTITLE9=Packad and Klar
TTITLE10=Uppslagsbokeförsäljaren
TTITLE11=Tack I Alla Fall
TTITLE12=Nummerpresentatören
TTITLE13=Bytt Är Bytt
TTITLE14=Var Rädd Om Din Present
TTITLE15=En Lycklig Man
TTITLE16=En Lycklig Man
EXTD=
EXTT0=
EXTT1=
EXTT2=
EXTT3=
EXTT4=
EXTT5=
EXTT6=
EXTT7=
EXTT8=
EXTT9=
EXTT10=
EXTT11=
EXTT12=
EXTT13=
EXTT14=
EXTT15=
EXTT16=
PLAYORDER=
